<svg xmlns="http://www.w3.org/2000/svg" width="655.359" height="655.359" fill-rule="evenodd" clip-rule="evenodd" image-rendering="optimizeQuality" shape-rendering="geometricPrecision" text-rendering="geometricPrecision" viewBox="0 0 6.827 6.827" id="holy"><rect width="6.827" height="6.827" fill="#f57c00" rx="1.28" ry="1.28"></rect><path fill="#fff" d="m3.408 4.447-1.155.763a.094.094 0 0 1-.104-.156l.475-.311c.244-.16.49-.32.73-.485a.094.094 0 0 1 .107 0l1.205.796a.094.094 0 0 1-.103.156l-1.155-.763z"></path><path fill="#fff" fill-rule="nonzero" d="M5.337 3.768c-.004 0-1.06-.257-1.877.557a.062.062 0 0 1-.11-.041V2.34c0-.008.002-.015.004-.022.22-.617 1.083-.673 1.159-.677a.063.063 0 0 1 .065.038l.828 2a.062.062 0 0 1-.07.09zM3.578 2.445v1.264a.062.062 0 0 0 .11.042c.523-.52 1.198-.357 1.2-.356a.063.063 0 0 0 .07-.09l-.539-1.299a.063.063 0 0 0-.066-.038c-.061.003-.625.044-.77.454a.062.062 0 0 0-.005.023z"></path><path fill="#fff" fill-rule="nonzero" d="M3.366 4.325c-.817-.814-1.872-.558-1.876-.557a.062.062 0 0 1-.07-.09L2.25 1.68a.063.063 0 0 1 .065-.039c.076.004.938.06 1.158.677a.062.062 0 0 1 .004.022v1.944a.063.063 0 0 1-.11.041zm-.118-.616V2.445a.062.062 0 0 0-.003-.023c-.147-.41-.71-.45-.772-.454a.063.063 0 0 0-.065.038l-.539 1.3a.063.063 0 0 0 .07.09v-.001c.002 0 .677-.165 1.2.356a.062.062 0 0 0 .11-.042z"></path></svg>